HIERARCHY
ROOT Hips
{
	OFFSET -14.64140 90.27770 -84.91600
	CHANNELS 6 Xposition Yposition Zposition Zrotation Xrotation Yrotation
	JOINT Spine
	{
		OFFSET 0.00000 13.20850 -1.60436
		CHANNELS 3 Zrotation Xrotation Yrotation
		JOINT Spine1
		{
			OFFSET 0.00000 8.61716 0.00000
			CHANNELS 3 Zrotation Xrotation Yrotation
			JOINT Spine2
			{
				OFFSET 0.00000 8.61717 0.00000
				CHANNELS 3 Zrotation Xrotation Yrotation
				JOINT Spine3
				{
					OFFSET 0.00000 8.61717 0.00000
					CHANNELS 3 Zrotation Xrotation Yrotation
					JOINT Neck
					{
						OFFSET 0.00000 11.07920 1.10792
						CHANNELS 3 Zrotation Xrotation Yrotation
						JOINT Neck1
						{
							OFFSET 0.00000 7.08032 0.00000
							CHANNELS 3 Zrotation Xrotation Yrotation
							JOINT Head
							{
								OFFSET 0.00000 7.08031 0.00000
								CHANNELS 3 Zrotation Xrotation Yrotation
								End site
								{
									OFFSET 0.00000 0.00000 0.00000
								}
							}
						}
					}
					JOINT RightShoulder
					{
						OFFSET -0.01000 7.91373 5.19711
						CHANNELS 3 Zrotation Xrotation Yrotation
						JOINT RightArm
						{
							OFFSET -18.41580 0.00000 0.00000
							CHANNELS 3 Zrotation Xrotation Yrotation
							JOINT RightForeArm
							{
								OFFSET -29.11090 0.00000 0.00000
								CHANNELS 3 Zrotation Xrotation Yrotation
								JOINT RightHand
								{
									OFFSET -24.65040 0.00000 0.00000
									CHANNELS 3 Zrotation Xrotation Yrotation
									JOINT RightHandThumb1
									{
										OFFSET -5.35114 -0.85590 3.97906
										CHANNELS 3 Zrotation Xrotation Yrotation
										JOINT RightHandThumb2
										{
											OFFSET -4.52789 0.00000 0.00000
											CHANNELS 3 Zrotation Xrotation Yrotation
											JOINT RightHandThumb3
											{
												OFFSET -2.46976 0.00000 0.00000
												CHANNELS 3 Zrotation Xrotation Yrotation
												End site
												{
													OFFSET 0.00000 0.00000 0.00000
												}
											}
										}
									}
									JOINT RightHandIndex1
									{
										OFFSET -14.26970 0.00000 2.88139
										CHANNELS 3 Zrotation Xrotation Yrotation
										JOINT RightHandIndex2
										{
											OFFSET -5.48836 0.00000 0.00000
											CHANNELS 3 Zrotation Xrotation Yrotation
											JOINT RightHandIndex3
											{
												OFFSET -3.01859 0.00000 0.00000
												CHANNELS 3 Zrotation Xrotation Yrotation
												End site
												{
													OFFSET 0.00000 0.00000 0.00000
												}
											}
										}
									}
									JOINT RightHandMiddle1
									{
										OFFSET -14.26970 0.00000 -0.09147
										CHANNELS 3 Zrotation Xrotation Yrotation
										JOINT RightHandMiddle2
										{
											OFFSET -6.17441 0.00000 0.00000
											CHANNELS 3 Zrotation Xrotation Yrotation
											JOINT RightHandMiddle3
											{
												OFFSET -3.56743 0.00000 0.00000
												CHANNELS 3 Zrotation Xrotation Yrotation
												End site
												{
													OFFSET 0.00000 0.00000 0.00000
												}
											}
										}
									}
									JOINT RightHandRing1
									{
										OFFSET -12.69180 0.00000 -3.06433
										CHANNELS 3 Zrotation Xrotation Yrotation
										JOINT RightHandRing2
										{
											OFFSET -5.62556 0.00000 0.00000
											CHANNELS 3 Zrotation Xrotation Yrotation
											JOINT RightHandRing3
											{
												OFFSET -3.56744 0.00000 0.00000
												CHANNELS 3 Zrotation Xrotation Yrotation
												End site
												{
													OFFSET 0.00000 0.00000 0.00000
												}
											}
										}
									}
									JOINT RightHandPinky1
									{
										OFFSET -11.11390 0.00000 -6.03719
										CHANNELS 3 Zrotation Xrotation Yrotation
										JOINT RightHandPinky2
										{
											OFFSET -4.52789 0.00000 0.00000
											CHANNELS 3 Zrotation Xrotation Yrotation
											JOINT RightHandPinky3
											{
												OFFSET -2.46976 0.00000 0.00000
												CHANNELS 3 Zrotation Xrotation Yrotation
												End site
												{
													OFFSET 0.00000 0.00000 0.00000
												}
											}
										}
									}
								}
							}
						}
					}
					JOINT LeftShoulder
					{
						OFFSET 0.01000 7.91373 5.19711
						CHANNELS 3 Zrotation Xrotation Yrotation
						JOINT LeftArm
						{
							OFFSET 18.41580 0.00000 0.00000
							CHANNELS 3 Zrotation Xrotation Yrotation
							JOINT LeftForeArm
							{
								OFFSET 29.11090 0.00000 0.00000
								CHANNELS 3 Zrotation Xrotation Yrotation
								JOINT LeftHand
								{
									OFFSET 24.65040 0.00000 0.00000
									CHANNELS 3 Zrotation Xrotation Yrotation
									JOINT LeftHandThumb1
									{
										OFFSET 5.35114 -0.85590 3.97906
										CHANNELS 3 Zrotation Xrotation Yrotation
										JOINT LeftHandThumb2
										{
											OFFSET 4.52789 0.00000 0.00000
											CHANNELS 3 Zrotation Xrotation Yrotation
											JOINT LeftHandThumb3
											{
												OFFSET 2.46977 0.00000 0.00000
												CHANNELS 3 Zrotation Xrotation Yrotation
												End site
												{
													OFFSET 0.00000 0.00000 0.00000
												}
											}
										}
									}
									JOINT LeftHandIndex1
									{
										OFFSET 14.26970 0.00000 2.88139
										CHANNELS 3 Zrotation Xrotation Yrotation
										JOINT LeftHandIndex2
										{
											OFFSET 5.48836 0.00000 0.00000
											CHANNELS 3 Zrotation Xrotation Yrotation
											JOINT LeftHandIndex3
											{
												OFFSET 3.01859 0.00000 0.00000
												CHANNELS 3 Zrotation Xrotation Yrotation
												End site
												{
													OFFSET 0.00000 0.00000 0.00000
												}
											}
										}
									}
									JOINT LeftHandMiddle1
									{
										OFFSET 14.26970 0.00000 -0.09147
										CHANNELS 3 Zrotation Xrotation Yrotation
										JOINT LeftHandMiddle2
										{
											OFFSET 6.17440 0.00000 0.00000
											CHANNELS 3 Zrotation Xrotation Yrotation
											JOINT LeftHandMiddle3
											{
												OFFSET 3.56744 0.00000 0.00000
												CHANNELS 3 Zrotation Xrotation Yrotation
												End site
												{
													OFFSET 0.00000 0.00000 0.00000
												}
											}
										}
									}
									JOINT LeftHandRing1
									{
										OFFSET 12.69180 0.00000 -3.06433
										CHANNELS 3 Zrotation Xrotation Yrotation
										JOINT LeftHandRing2
										{
											OFFSET 5.62556 0.00000 0.00000
											CHANNELS 3 Zrotation Xrotation Yrotation
											JOINT LeftHandRing3
											{
												OFFSET 3.56744 0.00000 0.00000
												CHANNELS 3 Zrotation Xrotation Yrotation
												End site
												{
													OFFSET 0.00000 0.00000 0.00000
												}
											}
										}
									}
									JOINT LeftHandPinky1
									{
										OFFSET 11.11390 0.00000 -6.03719
										CHANNELS 3 Zrotation Xrotation Yrotation
										JOINT LeftHandPinky2
										{
											OFFSET 4.52789 0.00000 0.00000
											CHANNELS 3 Zrotation Xrotation Yrotation
											JOINT LeftHandPinky3
											{
												OFFSET 2.46976 0.00000 0.00000
												CHANNELS 3 Zrotation Xrotation Yrotation
												End site
												{
													OFFSET 0.00000 0.00000 0.00000
												}
											}
										}
									}
								}
							}
						}
					}
					JOINT pCube4
					{
						OFFSET 0.00000 10.91090 1.10792
						CHANNELS 3 Zrotation Xrotation Yrotation
						End site
						{
							OFFSET 0.00000 0.00000 0.00000
						}
					}
				}
			}
		}
	}
	JOINT RightUpLeg
	{
		OFFSET -9.98441 0.00000 0.00000
		CHANNELS 3 Zrotation Xrotation Yrotation
		JOINT RightLeg
		{
			OFFSET 0.00000 -42.11790 0.00000
			CHANNELS 3 Zrotation Xrotation Yrotation
			JOINT RightFoot
			{
				OFFSET 0.00000 -45.00020 -0.00001
				CHANNELS 3 Zrotation Xrotation Yrotation
				JOINT RightForeFoot
				{
					OFFSET 0.00000 -3.74820 0.00000
					CHANNELS 3 Zrotation Xrotation Yrotation
					JOINT RightToeBase
					{
						OFFSET 0.00000 0.06325 14.43120
						CHANNELS 3 Zrotation Xrotation Yrotation
						End site
						{
							OFFSET 0.00000 0.00000 0.00000
						}
					}
				}
			}
		}
	}
	JOINT LeftUpLeg
	{
		OFFSET 9.98441 0.00000 0.00000
		CHANNELS 3 Zrotation Xrotation Yrotation
		JOINT LeftLeg
		{
			OFFSET 0.00000 -42.11800 0.00000
			CHANNELS 3 Zrotation Xrotation Yrotation
			JOINT LeftFoot
			{
				OFFSET 0.00000 -45.00070 0.00000
				CHANNELS 3 Zrotation Xrotation Yrotation
				JOINT LeftForeFoot
				{
					OFFSET 0.00000 -3.74824 0.00000
					CHANNELS 3 Zrotation Xrotation Yrotation
					JOINT LeftToeBase
					{
						OFFSET 0.00000 0.06325 14.43110
						CHANNELS 3 Zrotation Xrotation Yrotation
						End site
						{
							OFFSET 0.00000 0.00000 0.00000
						}
					}
				}
			}
		}
	}
}
MOTION
Frames: 4
Frame Time: 0.050000
-0.04647340388150384 -0.022323547826442237 0.010815879685457809 -0.033698349349697586 -0.0019246377228705873 0.04452353978769957 -3.2314068512354197 0.4910757577352468 -0.7777452110493612 -1.1100453040444318 3.812169321974861 0.3545841541281983 -1.269406171597448 -2.1305052687649955 -1.0208474177276425 -0.40729692179875243 0.5558308970110922 -0.7982784966200982 -0.5369289084077485 13.303290903287776 2.400909837327904 0.4300643896180108 0.1853465347788796 4.412072869476465 -0.075268711141326 -14.732178575797976 0.3950510870210291 -4.8704977531825175 1.8081763013579426 -15.318128468987446 73.28432106954044 19.81154751645936 -0.9104527012395875 2.758768527532521 2.464160460674893 42.06192784170089 23.235047141413684 -0.12429150298090957 -4.182650721402449 4.543311499559171 -0.12868501212710692 -1.6305325075944175 0.004129213974769189 0.029962280117017955 -56.23098502754678 0.0005287289823770537 0.017964478637538438 -56.23570534522373 -38.73561479543567 -0.018524058305481206 0.001750482756277119 -0.0031670462641386057 0.02702460147242898 -0.0021809647133773694 -0.008540676095313005 -0.009854269550290468 -0.0356084290104916 -36.697703599280985 0.04869729814239591 0.021108377441577543 0.021244608724609766 -0.034019781953008636 -0.02965707113540718 0.002590542583092667 -0.028792910912344132 -0.04157296721552856 -19.775702893309152 -0.02552314832423787 -0.02596857255046781 -0.028048371033097708 0.043069445456714005 -0.03545161446110253 -0.04823319938684894 -0.004696724230578055 0.037878775782838124 24.075749612605364 -0.02894527371207987 0.006201890238324844 28.885114014877782 0.025634784389391825 0.01998219583484626 28.82200738270484 -0.020496395540364008 0.04223226507790115 6.206576082445202 1.4358100604424227 13.825113098679699 -72.60420450669471 25.45861331492424 -4.089436373972026 -0.688097913656367 -11.167714522527271 -42.45733771847826 -9.437131161717065 -0.2962452232014178 3.0652206490838125 -0.4430124920627382 0.10910454213920957 -8.15484268100771 0.03704056862932233 0.001886663612734087 44.558749156023644 -0.007238461488516723 -0.04259913939235754 44.59235198786176 12.468422077112757 0.01880299995165994 -0.008189306115834348 0.01995529539391715 -0.028491236892616886 0.037118156313660215 -0.000936725154655011 0.03696942038620942 0.032482938946925735 11.151842448639549 0.047726237627138915 0.0022978569572649973 0.029262391307033887 0.026092542977671603 -0.024560434474113817 -0.009310245445648664 -0.030673416777479454 -0.014950209061700791 4.731130038054022 0.01697180182941832 -0.016392411552467318 -0.008978575103294133 -0.01501201685385204 -0.04050994596214139 -0.04835456178025394 0.045872372683436094 -0.006477057614502833 -5.591963764129366 0.02847550708059277 0.03104706901152809 -6.7027137826121646 -0.010380633672175715 -0.001192008485373341 -6.678294345096756 0.040071503379259896 -0.028042720597596552 -0.022009160938387704 0.036534303231135705 -0.014439463583803738 8.039644255053586 3.471693844654296 -19.174077365036595 0.033532609953686815 10.379576930217432 0.02537162733572732 -5.627376285167854 -15.669199384779413 3.1682481643146567 0.03590931644434142 -0.023014235417492278 -0.023603829416045566 0.004691438186445696 4.715601605624436 0.03444426601492054 12.466805480859692 -8.20521100250819 6.847634527854844 -0.01822987537832557 46.3541668422413 0.042823943257244534 -4.31874548703185 -14.760894457616663 -3.8102879109128422 0.04376130774677054 0.04982325991966732 -0.0018240191720296872 -0.040524026293813936 -10.77394741846067 0.02674643220253639 
0.038886019550317064 0.04813613648205584 -0.00685329334696779 0.02789457053920349 -0.04744479706983512 -0.01202663121650659 -3.1770104053505155 0.47035975692627396 -0.7100585745365651 -1.0990054172230057 3.793317120227714 0.39421354444483453 -1.2665879752528264 -2.0567148042637142 -1.1142878077569738 -0.439001756401078 0.5504308405579255 -0.8281709768043605 -0.5792356020540247 13.43150903071403 2.45675787482782 0.3890930771547143 0.11525723116825883 4.650256033137542 -0.20070696198030677 -14.852456462969576 0.4202059519350135 -5.093781097308007 1.8607860368570404 -15.15351266279576 72.62818358433567 20.026747748188583 -0.4379616300398574 2.4757134796260254 1.9196706634505156 42.813624646277816 22.874809428555682 -0.16604220537991252 -4.246976058607185 4.515611422669521 -0.17154529134807397 -1.6016266870893348 -0.009525354970552735 0.04166561117005098 -56.24477404311169 0.03964658666424692 -0.03586975389418274 -56.22575911459712 -38.76636223687006 -0.01669384663922622 -0.02324756380192651 -0.015007301251584317 -0.00635182675081588 0.04977783359942786 -0.007220073776574543 -0.019330257995472753 -0.03717077032569493 -36.682115068061364 -0.02765634345340659 0.02312455377014309 0.029552209802639912 -0.0379065519885586 0.020821952480160832 0.01103058799707694 -0.004512424269229304 0.01422473258338037 -19.729035330464324 0.007521299602972033 -0.014711683904660175 -0.04571137667611093 -0.043900493528256104 -0.01830021900702847 0.04545038107456526 0.006457990714974265 0.04501959649988568 24.039674865745685 -0.03502603121623065 0.04845168133261866 28.81675782982522 0.02326795206244969 0.04302878144171602 28.824376167060567 -0.03732261588347839 0.022938076150604947 6.708488885409754 1.52199559031331 13.737426014377373 -72.10097438721007 24.18660659908276 -5.632347962568877 -0.4489846210269304 -11.683654867747169 -43.35568038638117 -8.382808015849477 0.07053115093984916 2.801133264392736 -0.4354141690826131 0.09988659041428402 -8.127246831912903 0.008950018060672303 0.01633016966794336 44.588218159267996 -0.036908474609427075 0.0395723890536277 44.6061613659739 12.486545931038552 -0.03717435446092292 0.026452053565739875 0.01840394024382504 0.04245864279774419 -0.01034378028140011 -0.045232944126118425 0.025894514713365645 -0.02250672328603215 11.139715643830892 -0.008429396430063435 0.011078859633931072 -0.024276222856717256 -0.04673208461621585 0.009539667790406735 0.02820926340327915 -0.03264668784139226 -0.005533024763915432 4.72946739567998 -0.0026218743620507823 -0.03732920409264838 -0.0015733399952391081 -0.010879831826098139 0.0459344131529297 0.019573592854029542 -0.02876977888192663 -0.02608469646968216 -5.609308933513271 -0.019461538770035286 -0.01181641249739185 -6.742957351399014 0.024119546456577174 0.0474406067647704 -6.733742713156118 0.00031238237290932483 -0.012873356959717178 -0.047281775553666035 0.008583048569684299 0.010882036256683004 8.025821708431812 3.4858679600902036 -19.21318979801016 0.042371093032033715 10.346269607266887 0.03826574800466387 -5.655733303832869 -15.639233779587038 3.169575416497128 0.04040093177366209 -0.027702453443365693 0.007585871097545876 -0.004134571345545001 4.738033592711783 0.023421497998245635 12.495604473907484 -8.285853440085665 6.916420256772077 0.019289860592080484 46.364344838743385 0.011453243008310954 -4.276075428690648 -14.702050275732743 -3.8221011220456043 0.04071883463555289 -0.003314425831809926 0.017641567283295 0.04414220138155516 -10.737012515575708 0.03626027820569376 
0.008582015465348541 -0.000890688246100781 0.011909871192503026 -0.022598453869286248 0.00957699457143248 0.001382861784998377 -3.166425506368671 0.5949073188048772 -0.6919951128169749 -1.1899079958396017 3.896071822185511 0.3927773564497339 -1.2696996723039062 -2.1015126438332095 -1.2473993322933874 -0.5097879522017987 0.5981002894122011 -0.7897678657010312 -0.7968686744322605 13.627505268203587 2.9250472331041553 0.3234510742598963 0.1731487748264559 5.7866803721882585 -0.4097776796609495 -14.827811606507888 0.4453983073293464 -5.35580351877426 1.8942931221583936 -15.103833162422402 71.7056024261036 19.995407701377072 -0.36719900701526587 2.190509560019839 1.2944701906421192 43.34921640709192 22.64470180367774 -0.154278375237839 -4.292040456857398 4.511885521067557 -0.13619741592559187 -1.5755038752340282 0.009486514331862424 -0.02569962137077005 -56.267095261605746 -8.196078689167361e-05 -0.04362370115898715 -56.270670852797444 -38.732757058744724 -0.045443485560963795 -0.015555200452000836 -0.04614337206667241 -0.007133917234603453 0.04396113833969303 -0.029782484397224335 0.023021400789086526 0.019031057582893474 -36.67885891098533 -0.014897379686704397 0.0308087649574184 0.03956917602741311 -0.02442811998290494 0.008672273633684217 -0.0460997035864061 0.027587590960935496 -0.027030776975293283 -19.77772908787891 0.00552616720483784 0.03820825389946892 0.00708624026671823 0.032127637891843794 -0.014524933087381781 0.005133159620383802 0.030784818864580225 -0.013568517150967933 24.032157092999196 -0.02795560411122388 0.013288449640931609 28.870774272513852 -0.03542555387832018 0.028415508414609644 28.89601439725449 -0.018102815457351665 -0.00553093393679772 7.3752221098403306 1.5781577624494785 13.713561939051395 -71.56812090965632 22.895742421992562 -7.609750799618726 0.28934319398661074 -12.5530360889102 -44.35464546063932 -7.270485466971258 0.44948489877318903 2.6251560923244637 -0.4979547636779787 0.06780521160129864 -8.134475585867087 -0.017248248116290242 -0.011699245700994329 44.553170270561964 -0.005152264007250379 0.01832170212656008 44.554009737911144 12.504746142650061 0.0073772244615808785 0.0007579112470717467 -0.01849682294277061 -0.034935744516305 -0.00719654741985704 0.04853261555425156 -0.0030370112519462976 0.028450890948225928 11.09689540438222 0.012790448646756932 -0.0454496540080667 -0.037412698409841696 -0.019392012181530627 0.004675016579568244 0.009493082462834925 -0.031921254369687964 -0.024055952137374433 4.777436713848962 0.011527455290001674 -0.018604355232179907 -0.009610823583724561 -0.02229027823910681 0.005740899445832931 -0.03753355880224796 0.026971785658365798 0.04349285281230374 -5.617143714189053 0.028887804587498178 -0.01750867915816165 -6.748879577857972 0.04783007191619208 0.018709705990500456 -6.696803631765302 -0.002522189232462153 0.04810353987973786 -0.0232228924289442 0.04798971748708985 8.305575916270588e-05 8.061510645455567 3.4545899862236973 -19.247201746391134 -0.024203520712663445 10.34764927446284 0.05544254356349321 -5.612782300968337 -15.704638929359467 3.2081455111972055 -0.045284020239647935 -0.02334628052636397 -0.0029846670362387315 0.02261199350565686 4.679989255308046 -0.0017456677961100037 12.479078019716145 -8.272191513324524 6.8842161254747785 0.036249906216710745 46.354995222008164 -0.010896813175891126 -4.339682998112817 -14.755048914268476 -3.817780429257735 -0.007443955153989956 -0.006766159716734248 0.022370723045120732 -0.04041527642670102 -10.699076320478282 0.03068388146535858 
-0.01001982860679311 -0.016115333009577515 0.04047734861281676 0.04209325140131933 -0.0008592009288172203 -0.004630310154226511 -3.0789319041567422 0.6330792341353518 -0.7359918577963347 -1.1663700226689393 3.8340066836681745 0.36895802583842974 -1.2689358884018962 -2.1512176100357507 -1.4305245806071347 -0.4893431873490588 0.6147048889879171 -0.8965601418742972 -1.0124001276685457 14.030376969607667 3.4678558150206085 0.268969957901644 0.2598706142493976 7.058374821932657 -0.5615605820976608 -14.613122574521258 0.6016163080900397 -5.585042893849555 1.9184561908984195 -14.994859826345309 70.66243432314637 20.067765213324588 0.04161240094083854 2.3291468263785404 0.8359719289693675 44.42356515359903 22.46395218047112 -0.20593584441974272 -4.40187787730127 4.545010712477129 -0.15526591747180668 -1.6148854784859286 0.003622535881501205 -0.010044958583891874 -56.25204665470895 0.017431802431337688 0.01239469366142383 -56.24093576348928 -38.74104859410171 -0.016311022066174963 0.00535174437911242 0.014734932818211309 -0.03278394546163432 0.002982554734731846 -0.02612521706490966 -0.03933375532414083 0.032889867319028966 -36.72454636689243 -0.02532965872177603 -0.03591990338480275 0.029395299382663713 -0.04537461188065466 0.010221812668229281 -0.01328766851665829 -0.014997183525805735 -0.01746800215174085 -19.720679731984312 -0.022858875402717076 0.008456093692649226 0.01511070383652881 -0.047798731392779126 0.011551126029990574 0.0363497615009812 -0.006363026982871753 -0.0008711212263977352 24.076114391186188 0.00010267314133808398 -0.019380398266076564 28.84288888803975 -0.0038454312227031977 -0.049305363555171074 28.855799577898086 -0.028306754975646012 -0.014873971825564287 8.206333137640897 1.7217433473697195 13.7264303885575 -70.8598919770094 20.895797191100833 -10.203523559341123 0.6089596994940799 -13.233760366261585 -46.21442524418306 -6.10699528144397 0.8580262760979961 2.367510862502796 -0.43416006820304687 0.07796751089616875 -8.143660817603386 0.048482201707940605 0.0092476599113344 44.56911103135472 -0.00624394084942608 -0.012940641812082146 44.52777165432312 12.504521509404496 0.04077286963610234 0.02150967532972199 -0.014822773252154461 -0.025416075846505407 -0.013934591072027094 -0.01356836260778253 0.004852639569509004 -0.0016188205468195668 11.136866804252573 0.022770271009515924 -0.03865596036006471 -0.03823860348847454 -0.030380154953693547 0.005725424509419465 0.011918060096901701 0.026045958893241888 0.015860726337657935 4.783366602126063 0.04505739781067334 0.0012009664299564334 0.022198765551586355 -0.010108917725436605 0.03980754708914479 0.04942289326395924 -0.02947536323642818 0.009119045296463351 -5.571859290570864 0.04920968865623116 -0.0022176447282425344 -6.732633936399449 0.03473884203543351 -0.023283656179296074 -6.745209739535807 0.0054723347979651225 -0.021616640048018658 0.03290118278143846 -0.012431831901383803 0.004464010776866405 8.035284149884728 3.540100431135433 -19.169710571201755 -0.04342271861409969 10.40397823069509 -0.023491762570784027 -5.594099257905244 -15.628378653377775 3.2174069789646405 0.02280347294000311 -0.026267776746742334 0.01780340952509371 0.039041849898218677 4.679446446612451 -0.02087202869448429 12.476352771128804 -8.286906436320761 6.880339754857698 0.049791013436927864 46.357171407989334 0.044818243505024294 -4.290630983966255 -14.771684334909574 -3.8039700810512342 0.013612859538538922 -0.0020245943588092638 0.014641880869941648 -0.015408310203957023 -10.763430204522347 -0.009608995685548443 
